<?xml version="1.0" encoding="UTF-8" standalone="no"?>
<!-- Created with Inkscape (http://www.inkscape.org/) -->

<svg
   width="210mm"
   height="297mm"
   viewBox="0 0 210 297"
   version="1.1"
   id="svg1"
   inkscape:version="1.3.2 (091e20e, 2023-11-25, custom)"
   sodipodi:docname="code1-alt.svg"
   xmlns:inkscape="http://www.inkscape.org/namespaces/inkscape"
   xmlns:sodipodi="http://sodipodi.sourceforge.net/DTD/sodipodi-0.dtd"
   xmlns:xlink="http://www.w3.org/1999/xlink"
   xmlns="http://www.w3.org/2000/svg"
   xmlns:svg="http://www.w3.org/2000/svg">
  <sodipodi:namedview
     id="namedview1"
     pagecolor="#ffffff"
     bordercolor="#000000"
     borderopacity="0.25"
     inkscape:showpageshadow="2"
     inkscape:pageopacity="0.0"
     inkscape:pagecheckerboard="0"
     inkscape:deskcolor="#d1d1d1"
     inkscape:document-units="mm"
     inkscape:zoom="4.2440236"
     inkscape:cx="385.83669"
     inkscape:cy="345.78036"
     inkscape:window-width="2560"
     inkscape:window-height="1369"
     inkscape:window-x="2248"
     inkscape:window-y="-8"
     inkscape:window-maximized="1"
     inkscape:current-layer="layer1" />
  <defs
     id="defs1">
    <linearGradient
       id="swatch73"
       inkscape:swatch="solid">
      <stop
         style="stop-color:#000000;stop-opacity:1;"
         offset="0"
         id="stop73" />
    </linearGradient>
    <linearGradient
       inkscape:collect="always"
       xlink:href="#swatch73"
       id="linearGradient73"
       x1="98.301839"
       y1="119.13131"
       x2="102.70244"
       y2="119.13131"
       gradientUnits="userSpaceOnUse" />
    <linearGradient
       inkscape:collect="always"
       xlink:href="#swatch73"
       id="linearGradient74"
       gradientUnits="userSpaceOnUse"
       x1="98.301839"
       y1="119.13131"
       x2="102.70244"
       y2="119.13131"
       gradientTransform="rotate(-8.372093,100.49624,91.020178)" />
    <linearGradient
       inkscape:collect="always"
       xlink:href="#swatch73"
       id="linearGradient75"
       gradientUnits="userSpaceOnUse"
       gradientTransform="rotate(-16.744093,100.49624,91.020188)"
       x1="98.301839"
       y1="119.13131"
       x2="102.70244"
       y2="119.13131" />
    <linearGradient
       inkscape:collect="always"
       xlink:href="#swatch73"
       id="linearGradient76"
       gradientUnits="userSpaceOnUse"
       gradientTransform="rotate(-33.488093,100.49621,91.020183)"
       x1="98.301839"
       y1="119.13131"
       x2="102.70244"
       y2="119.13131" />
    <linearGradient
       inkscape:collect="always"
       xlink:href="#swatch73"
       id="linearGradient77"
       gradientUnits="userSpaceOnUse"
       gradientTransform="rotate(-50.232093,100.49621,91.02018)"
       x1="98.301839"
       y1="119.13131"
       x2="102.70244"
       y2="119.13131" />
    <linearGradient
       inkscape:collect="always"
       xlink:href="#swatch73"
       id="linearGradient78"
       gradientUnits="userSpaceOnUse"
       gradientTransform="rotate(-83.720093,100.49621,91.020174)"
       x1="98.301839"
       y1="119.13131"
       x2="102.70244"
       y2="119.13131" />
    <linearGradient
       inkscape:collect="always"
       xlink:href="#swatch73"
       id="linearGradient79"
       gradientUnits="userSpaceOnUse"
       gradientTransform="rotate(-92.092093,100.49621,91.020171)"
       x1="98.301839"
       y1="119.13131"
       x2="102.70244"
       y2="119.13131" />
    <linearGradient
       inkscape:collect="always"
       xlink:href="#swatch73"
       id="linearGradient80"
       gradientUnits="userSpaceOnUse"
       gradientTransform="rotate(-117.20809,100.49622,91.020172)"
       x1="98.301839"
       y1="119.13131"
       x2="102.70244"
       y2="119.13131" />
    <linearGradient
       inkscape:collect="always"
       xlink:href="#swatch73"
       id="linearGradient81"
       gradientUnits="userSpaceOnUse"
       gradientTransform="rotate(-125.58009,100.49622,91.020172)"
       x1="98.301839"
       y1="119.13131"
       x2="102.70244"
       y2="119.13131" />
    <linearGradient
       inkscape:collect="always"
       xlink:href="#swatch73"
       id="linearGradient82"
       gradientUnits="userSpaceOnUse"
       gradientTransform="rotate(-142.32409,100.49623,91.020172)"
       x1="98.301839"
       y1="119.13131"
       x2="102.70244"
       y2="119.13131" />
    <linearGradient
       inkscape:collect="always"
       xlink:href="#swatch73"
       id="linearGradient83"
       gradientUnits="userSpaceOnUse"
       gradientTransform="rotate(-175.81209,100.49623,91.020172)"
       x1="98.301839"
       y1="119.13131"
       x2="102.70244"
       y2="119.13131" />
    <linearGradient
       inkscape:collect="always"
       xlink:href="#swatch73"
       id="linearGradient84"
       gradientUnits="userSpaceOnUse"
       gradientTransform="rotate(175.81591,100.49623,91.02017)"
       x1="98.301839"
       y1="119.13131"
       x2="102.70244"
       y2="119.13131" />
    <linearGradient
       inkscape:collect="always"
       xlink:href="#swatch73"
       id="linearGradient85"
       gradientUnits="userSpaceOnUse"
       gradientTransform="rotate(117.21191,100.49623,91.020164)"
       x1="98.301839"
       y1="119.13131"
       x2="102.70244"
       y2="119.13131" />
    <linearGradient
       inkscape:collect="always"
       xlink:href="#swatch73"
       id="linearGradient86"
       gradientUnits="userSpaceOnUse"
       gradientTransform="rotate(108.83991,100.49623,91.020165)"
       x1="98.301839"
       y1="119.13131"
       x2="102.70244"
       y2="119.13131" />
    <linearGradient
       inkscape:collect="always"
       xlink:href="#swatch73"
       id="linearGradient87"
       gradientUnits="userSpaceOnUse"
       gradientTransform="rotate(100.46791,100.49623,91.02017)"
       x1="98.301839"
       y1="119.13131"
       x2="102.70244"
       y2="119.13131" />
    <linearGradient
       inkscape:collect="always"
       xlink:href="#swatch73"
       id="linearGradient88"
       gradientUnits="userSpaceOnUse"
       gradientTransform="rotate(92.09591,100.49623,91.02015)"
       x1="98.301839"
       y1="119.13131"
       x2="102.70244"
       y2="119.13131" />
    <linearGradient
       inkscape:collect="always"
       xlink:href="#swatch73"
       id="linearGradient89"
       gradientUnits="userSpaceOnUse"
       gradientTransform="rotate(58.60791,100.49623,91.020146)"
       x1="98.301839"
       y1="119.13131"
       x2="102.70244"
       y2="119.13131" />
    <linearGradient
       inkscape:collect="always"
       xlink:href="#swatch73"
       id="linearGradient90"
       gradientUnits="userSpaceOnUse"
       gradientTransform="rotate(50.23591,100.49624,91.02014)"
       x1="98.301839"
       y1="119.13131"
       x2="102.70244"
       y2="119.13131" />
    <linearGradient
       inkscape:collect="always"
       xlink:href="#swatch73"
       id="linearGradient91"
       gradientUnits="userSpaceOnUse"
       gradientTransform="rotate(16.74791,100.49628,91.020049)"
       x1="98.301839"
       y1="119.13131"
       x2="102.70244"
       y2="119.13131" />
    <linearGradient
       inkscape:collect="always"
       xlink:href="#swatch73"
       id="linearGradient92"
       gradientUnits="userSpaceOnUse"
       gradientTransform="rotate(8.37591,100.49627,91.01998)"
       x1="98.301839"
       y1="119.13131"
       x2="102.70244"
       y2="119.13131" />
  </defs>
  <g
     inkscape:label="Layer 1"
     inkscape:groupmode="layer"
     id="layer1">
    <path
       id="path35"
       style="fill:none;fill-opacity:0.30621;stroke:#000000;stroke-width:0.1"
       d="M 130.67002,91.020157 A 30.173801,30.173801 0 0 1 100.49622,121.19396 30.173801,30.173801 0 0 1 70.322422,91.020157 30.173801,30.173801 0 0 1 100.49622,60.846355 30.173801,30.173801 0 0 1 130.67002,91.020157 Z" />
    <path
       id="path73"
       style="opacity:1;fill:url(#linearGradient73);stroke:none;stroke-width:0.01;stroke-dasharray:none;stroke-opacity:1"
       d="m 98.307173,121.03757 a 30.173801,30.173801 0 0 0 2.189017,0.15658 30.173801,30.173801 0 0 0 2.2009,-0.0899 l -0.29507,-4.03542 a 26.183878,26.183878 0 0 1 -3.804417,0 z" />
    <path
       id="path74"
       style="opacity:1;fill:url(#linearGradient74);fill-opacity:1;stroke:none;stroke-width:0.01;stroke-dasharray:none;stroke-opacity:1"
       d="m 102.70107,121.03641 a 30.173801,30.173801 0 0 0 2.18848,-0.16381 30.173801,30.173801 0 0 0 2.16436,-0.4094 l -0.87949,-3.94946 a 26.183878,26.183878 0 0 1 -3.76388,0.55393 z" />
    <path
       id="path75"
       style="opacity:1;fill:url(#linearGradient75);fill-opacity:1;stroke:none;stroke-width:0.01;stroke-dasharray:none;stroke-opacity:1"
       d="m 107.04792,120.39552 a 30.173801,30.173801 0 0 0 2.14131,-0.4807 30.173801,30.173801 0 0 0 2.08169,-0.72017 l -1.44516,-3.77932 a 26.183878,26.183878 0 0 1 -3.64312,1.09605 z" />
    <path
       id="path76"
       style="opacity:1;fill:url(#linearGradient76);fill-opacity:1;stroke:none;stroke-width:0.01;stroke-dasharray:none;stroke-opacity:1"
       d="m 115.23305,117.26252 a 30.173801,30.173801 0 0 0 1.91203,-1.07722 30.173801,30.173801 0 0 0 1.78595,-1.28936 l -2.47269,-3.20274 a 26.183878,26.183878 0 0 1 -3.17289,2.09915 z" />
    <path
       id="path77"
       style="opacity:1;fill:url(#linearGradient77);fill-opacity:1;stroke:none;stroke-width:0.01;stroke-dasharray:none;stroke-opacity:1"
       d="m 122.16855,111.90425 a 30.173801,30.173801 0 0 0 1.52062,-1.58239 30.173801,30.173801 0 0 0 1.33877,-1.74922 l -3.29055,-2.35457 a 26.183878,26.183878 0 0 1 -2.43361,2.92424 z" />
    <path
       id="path78"
       style="opacity:1;fill:url(#linearGradient78);fill-opacity:1;stroke:none;stroke-width:0.01;stroke-dasharray:none;stroke-opacity:1"
       d="m 130.09402,96.479533 a 30.173801,30.173801 0 0 0 0.3951,-2.158726 30.173801,30.173801 0 0 0 0.15138,-2.197528 l -4.04349,-0.148119 a 26.183878,26.183878 0 0 1 -0.41615,3.781589 z" />
    <path
       id="path79"
       style="opacity:1;fill:url(#linearGradient79);fill-opacity:1;stroke:none;stroke-width:0.01;stroke-dasharray:none;stroke-opacity:1"
       d="m 130.5735,92.111927 a 30.173801,30.173801 0 0 0 0.0766,-2.193248 30.173801,30.173801 0 0 0 -0.17019,-2.196151 l -4.02197,0.44219 a 26.183878,26.183878 0 0 1 0.13888,3.801882 z" />
    <path
       id="path80"
       style="opacity:1;fill:url(#linearGradient80);fill-opacity:1;stroke:none;stroke-width:0.01;stroke-dasharray:none;stroke-opacity:1"
       d="m 128.19311,79.24233 a 30.173801,30.173801 0 0 0 -0.86158,-2.018388 30.173801,30.173801 0 0 0 -1.08626,-1.91627 l -3.45401,2.107518 a 26.183878,26.183878 0 0 1 1.73947,3.383468 z" />
    <path
       id="path81"
       style="opacity:1;fill:url(#linearGradient81);fill-opacity:1;stroke:none;stroke-width:0.01;stroke-dasharray:none;stroke-opacity:1"
       d="m 126.18311,75.335183 a 30.173801,30.173801 0 0 0 -1.14628,-1.871434 30.173801,30.173801 0 0 0 -1.35369,-1.73769 l -3.11035,2.587962 a 26.183878,26.183878 0 0 1 2.21357,3.094146 z" />
    <path
       id="path82"
       style="opacity:1;fill:url(#linearGradient82);fill-opacity:1;stroke:none;stroke-width:0.01;stroke-dasharray:none;stroke-opacity:1"
       d="m 120.57525,68.599916 a 30.173801,30.173801 0 0 0 -1.63683,-1.46185 30.173801,30.173801 0 0 0 -1.79691,-1.274022 l -2.2329,3.374316 a 26.183878,26.183878 0 0 1 3.01113,2.325238 z" />
    <path
       id="path83"
       style="opacity:1;fill:url(#linearGradient83);fill-opacity:1;stroke:none;stroke-width:0.01;stroke-dasharray:none;stroke-opacity:1"
       d="m 104.87152,61.242797 a 30.173801,30.173801 0 0 0 -2.17172,-0.31604 30.173801,30.173801 0 0 0 -2.20157,-0.07107 l -4.3e-4,4.046217 a 26.183878,26.183878 0 0 1 3.79428,0.277821 z" />
    <path
       id="path84"
       style="opacity:1;fill:url(#linearGradient84);fill-opacity:1;stroke:none;stroke-width:0.01;stroke-dasharray:none;stroke-opacity:1"
       d="m 100.48933,60.923073 a 30.173801,30.173801 0 0 0 -2.194597,0.0035 30.173801,30.173801 0 0 0 -2.18845,0.250235 l 0.5887,4.003161 a 26.183878,26.183878 0 0 1 3.794297,-0.277585 z" />
    <path
       id="path85"
       style="opacity:1;fill:url(#linearGradient85);fill-opacity:1;stroke:none;stroke-width:0.01;stroke-dasharray:none;stroke-opacity:1"
       d="m 74.802135,75.346971 a 30.173801,30.173801 0 0 0 -1.14029,1.875102 30.173801,30.173801 0 0 0 -0.926477,1.998394 l 3.723737,1.582939 a 26.183878,26.183878 0 0 1 1.73969,-3.38337 z" />
    <path
       id="path86"
       style="opacity:1;fill:url(#linearGradient86);fill-opacity:1;stroke:none;stroke-width:0.01;stroke-dasharray:none;stroke-opacity:1"
       d="m 72.793928,79.255038 a 30.173801,30.173801 0 0 0 -0.85512,2.021145 30.173801,30.173801 0 0 0 -0.62564,2.111993 l 3.914527,1.023897 a 26.183878,26.183878 0 0 1 1.22854,-3.600615 z" />
    <path
       id="path87"
       style="opacity:1;fill:url(#linearGradient87);fill-opacity:1;stroke:none;stroke-width:0.01;stroke-dasharray:none;stroke-opacity:1"
       d="m 71.376138,83.413856 a 30.173801,30.173801 0 0 0 -0.55173,2.124112 30.173801,30.173801 0 0 0 -0.31147,2.18058 l 4.021887,0.443033 a 26.183878,26.183878 0 0 1 0.69121,-3.741121 z" />
    <path
       id="path88"
       style="opacity:1;fill:url(#linearGradient88);fill-opacity:1;stroke:none;stroke-width:0.01;stroke-dasharray:none;stroke-opacity:1"
       d="m 70.578968,87.734775 a 30.173801,30.173801 0 0 0 -0.23658,2.181808 30.173801,30.173801 0 0 0 0.009,2.202693 l 4.043537,-0.147273 a 26.183878,26.183878 0 0 1 0.13913,-3.801893 z" />
    <path
       id="path89"
       style="opacity:1;fill:url(#linearGradient89);fill-opacity:1;stroke:none;stroke-width:0.01;stroke-dasharray:none;stroke-opacity:1"
       d="m 73.732435,104.78736 a 30.173801,30.173801 0 0 0 1.00653,1.95017 30.173801,30.173801 0 0 0 1.22312,1.83191 l 3.291047,-2.35389 A 26.183878,26.183878 0 0 1 77.271425,102.968 Z" />
    <path
       id="path90"
       style="opacity:1;fill:url(#linearGradient90);fill-opacity:1;stroke:none;stroke-width:0.01;stroke-dasharray:none;stroke-opacity:1"
       d="m 76.022135,108.53744 a 30.173801,30.173801 0 0 0 1.27975,1.78284 30.173801,30.173801 0 0 0 1.47681,1.6343 l 2.913257,-2.80798 a 26.183878,26.183878 0 0 1 -2.43343,-2.92441 z" />
    <path
       id="path91"
       style="opacity:1;fill:url(#linearGradient91);fill-opacity:1;stroke:none;stroke-width:0.01;stroke-dasharray:none;stroke-opacity:1"
       d="m 89.750166,119.13347 a 30.173801,30.173801 0 0 0 2.05101,0.78078 30.173801,30.173801 0 0 0 2.13341,0.54816 l 0.880327,-3.94929 a 26.183878,26.183878 0 0 1 -3.643067,-1.09628 z" />
    <path
       id="path92"
       style="opacity:1;fill:url(#linearGradient92);fill-opacity:1;stroke:none;stroke-width:0.01;stroke-dasharray:none;stroke-opacity:1"
       d="m 93.957966,120.39851 a 30.173801,30.173801 0 0 0 2.142847,0.47383 30.173801,30.173801 0 0 0 2.19048,0.2317 l 0.29593,-4.03538 a 26.183878,26.183878 0 0 1 -3.76386,-0.55417 z" />
  </g>
</svg>
