<?xml version="1.0" encoding="UTF-8" standalone="no"?>
<!-- Created with Inkscape (http://www.inkscape.org/) -->

<svg
   width="210mm"
   height="297mm"
   viewBox="0 0 210 297"
   version="1.1"
   id="svg1"
   inkscape:version="1.3.2 (091e20e, 2023-11-25, custom)"
   sodipodi:docname="code0.svg"
   xmlns:inkscape="http://www.inkscape.org/namespaces/inkscape"
   xmlns:sodipodi="http://sodipodi.sourceforge.net/DTD/sodipodi-0.dtd"
   xmlns:xlink="http://www.w3.org/1999/xlink"
   xmlns="http://www.w3.org/2000/svg"
   xmlns:svg="http://www.w3.org/2000/svg">
  <sodipodi:namedview
     id="namedview1"
     pagecolor="#ffffff"
     bordercolor="#000000"
     borderopacity="0.25"
     inkscape:showpageshadow="2"
     inkscape:pageopacity="0.0"
     inkscape:pagecheckerboard="0"
     inkscape:deskcolor="#d1d1d1"
     inkscape:document-units="mm"
     inkscape:zoom="3.0009779"
     inkscape:cx="320.06234"
     inkscape:cy="327.39328"
     inkscape:window-width="2560"
     inkscape:window-height="1369"
     inkscape:window-x="2248"
     inkscape:window-y="-8"
     inkscape:window-maximized="1"
     inkscape:current-layer="g48" />
  <defs
     id="defs1">
    <linearGradient
       inkscape:collect="always"
       xlink:href="#swatch73"
       id="linearGradient73"
       x1="98.301842"
       y1="119.13131"
       x2="102.70244"
       y2="119.13131"
       gradientUnits="userSpaceOnUse"
       gradientTransform="translate(4.7e-6)" />
    <linearGradient
       id="swatch73"
       inkscape:swatch="solid">
      <stop
         style="stop-color:#000000;stop-opacity:1;"
         offset="0"
         id="stop73" />
    </linearGradient>
    <linearGradient
       inkscape:collect="always"
       xlink:href="#swatch73"
       id="linearGradient10"
       gradientUnits="userSpaceOnUse"
       gradientTransform="rotate(8.372,100.49622,91.020186)"
       x1="98.301842"
       y1="119.13131"
       x2="102.70244"
       y2="119.13131" />
    <linearGradient
       inkscape:collect="always"
       xlink:href="#swatch73"
       id="linearGradient12"
       gradientUnits="userSpaceOnUse"
       gradientTransform="rotate(16.744,100.49622,91.020175)"
       x1="98.301842"
       y1="119.13131"
       x2="102.70244"
       y2="119.13131" />
    <linearGradient
       inkscape:collect="always"
       xlink:href="#swatch73"
       id="linearGradient14"
       gradientUnits="userSpaceOnUse"
       gradientTransform="rotate(50.232,100.49622,91.020164)"
       x1="98.301842"
       y1="119.13131"
       x2="102.70244"
       y2="119.13131" />
    <linearGradient
       inkscape:collect="always"
       xlink:href="#swatch73"
       id="linearGradient16"
       gradientUnits="userSpaceOnUse"
       gradientTransform="rotate(66.976,100.49622,91.020166)"
       x1="98.301842"
       y1="119.13131"
       x2="102.70244"
       y2="119.13131" />
    <linearGradient
       inkscape:collect="always"
       xlink:href="#swatch73"
       id="linearGradient18"
       gradientUnits="userSpaceOnUse"
       gradientTransform="rotate(75.348,100.49622,91.020162)"
       x1="98.301842"
       y1="119.13131"
       x2="102.70244"
       y2="119.13131" />
    <linearGradient
       inkscape:collect="always"
       xlink:href="#swatch73"
       id="linearGradient20"
       gradientUnits="userSpaceOnUse"
       gradientTransform="rotate(108.836,100.49622,91.020163)"
       x1="98.301842"
       y1="119.13131"
       x2="102.70244"
       y2="119.13131" />
    <linearGradient
       inkscape:collect="always"
       xlink:href="#swatch73"
       id="linearGradient22"
       gradientUnits="userSpaceOnUse"
       gradientTransform="rotate(117.208,100.49622,91.020166)"
       x1="98.301842"
       y1="119.13131"
       x2="102.70244"
       y2="119.13131" />
    <linearGradient
       inkscape:collect="always"
       xlink:href="#swatch73"
       id="linearGradient24"
       gradientUnits="userSpaceOnUse"
       gradientTransform="rotate(133.952,100.49622,91.020166)"
       x1="98.301842"
       y1="119.13131"
       x2="102.70244"
       y2="119.13131" />
    <linearGradient
       inkscape:collect="always"
       xlink:href="#swatch73"
       id="linearGradient26"
       gradientUnits="userSpaceOnUse"
       gradientTransform="rotate(167.44,100.49621,91.020161)"
       x1="98.301842"
       y1="119.13131"
       x2="102.70244"
       y2="119.13131" />
    <linearGradient
       inkscape:collect="always"
       xlink:href="#swatch73"
       id="linearGradient28"
       gradientUnits="userSpaceOnUse"
       gradientTransform="rotate(-167.444,100.49622,91.020159)"
       x1="98.301842"
       y1="119.13131"
       x2="102.70244"
       y2="119.13131" />
    <linearGradient
       inkscape:collect="always"
       xlink:href="#swatch73"
       id="linearGradient30"
       gradientUnits="userSpaceOnUse"
       gradientTransform="rotate(-159.072,100.49621,91.020161)"
       x1="98.301842"
       y1="119.13131"
       x2="102.70244"
       y2="119.13131" />
    <linearGradient
       inkscape:collect="always"
       xlink:href="#swatch73"
       id="linearGradient32"
       gradientUnits="userSpaceOnUse"
       gradientTransform="rotate(-150.7,100.49621,91.020161)"
       x1="98.301842"
       y1="119.13131"
       x2="102.70244"
       y2="119.13131" />
    <linearGradient
       inkscape:collect="always"
       xlink:href="#swatch73"
       id="linearGradient34"
       gradientUnits="userSpaceOnUse"
       gradientTransform="rotate(-117.212,100.49649,91.019995)"
       x1="98.301842"
       y1="119.13131"
       x2="102.70244"
       y2="119.13131" />
    <linearGradient
       inkscape:collect="always"
       xlink:href="#swatch73"
       id="linearGradient36"
       gradientUnits="userSpaceOnUse"
       gradientTransform="rotate(-92.096,100.49621,91.020164)"
       x1="98.301842"
       y1="119.13131"
       x2="102.70244"
       y2="119.13131" />
    <linearGradient
       inkscape:collect="always"
       xlink:href="#swatch73"
       id="linearGradient38"
       gradientUnits="userSpaceOnUse"
       gradientTransform="rotate(-83.724,100.49621,91.02016)"
       x1="98.301842"
       y1="119.13131"
       x2="102.70244"
       y2="119.13131" />
    <linearGradient
       inkscape:collect="always"
       xlink:href="#swatch73"
       id="linearGradient40"
       gradientUnits="userSpaceOnUse"
       gradientTransform="rotate(-75.352,100.49621,91.020161)"
       x1="98.301842"
       y1="119.13131"
       x2="102.70244"
       y2="119.13131" />
    <linearGradient
       inkscape:collect="always"
       xlink:href="#swatch73"
       id="linearGradient42"
       gradientUnits="userSpaceOnUse"
       gradientTransform="rotate(-50.236,100.49621,91.020171)"
       x1="98.301842"
       y1="119.13131"
       x2="102.70244"
       y2="119.13131" />
    <linearGradient
       inkscape:collect="always"
       xlink:href="#swatch73"
       id="linearGradient44"
       gradientUnits="userSpaceOnUse"
       gradientTransform="rotate(-41.864,100.49649,91.01945)"
       x1="98.301842"
       y1="119.13131"
       x2="102.70244"
       y2="119.13131" />
    <linearGradient
       inkscape:collect="always"
       xlink:href="#swatch73"
       id="linearGradient46"
       gradientUnits="userSpaceOnUse"
       gradientTransform="rotate(-33.492,100.49621,91.020174)"
       x1="98.301842"
       y1="119.13131"
       x2="102.70244"
       y2="119.13131" />
    <linearGradient
       inkscape:collect="always"
       xlink:href="#swatch73"
       id="linearGradient48"
       gradientUnits="userSpaceOnUse"
       gradientTransform="rotate(-16.748,100.49622,91.02019)"
       x1="98.301842"
       y1="119.13131"
       x2="102.70244"
       y2="119.13131" />
  </defs>
  <g
     inkscape:label="Layer 1"
     inkscape:groupmode="layer"
     id="layer1">
    <g
       id="g48">
      <path
         id="path1"
         style="fill:none;fill-opacity:0.30621;stroke:#000000;stroke-width:0.1"
         d="M 130.67002,91.020157 A 30.173801,30.173801 0 0 1 100.49622,121.19396 30.173801,30.173801 0 0 1 70.322422,91.020157 30.173801,30.173801 0 0 1 100.49622,60.846355 30.173801,30.173801 0 0 1 130.67002,91.020157 Z" />
      <path
         id="path73"
         style="fill:url(#linearGradient73);stroke:none;stroke-width:0.01;stroke-dasharray:none;stroke-opacity:1"
         d="m 98.307181,121.06874 c 0.72753,0.0787 1.444265,0.12541 2.189009,0.12541 0.74474,0 1.46861,-0.0604 2.2009,-0.11717 l -0.29507,-4.00815 c -1.26646,0.0922 -2.53795,0.0922 -3.804409,0 z"
         sodipodi:nodetypes="czcccc" />
      <path
         id="path9"
         style="fill:url(#linearGradient10);stroke:none;stroke-width:0.01;stroke-dasharray:none;stroke-opacity:1"
         d="m 93.955447,120.42981 c 0.708319,0.18379 1.410615,0.33435 2.147423,0.44279 0.736803,0.10843 1.461754,0.15407 2.19451,0.20453 l 0.29166,-4.0084 c -1.266393,-0.0932 -2.524334,-0.27831 -3.763873,-0.55392 z"
         sodipodi:nodetypes="czcccc" />
      <path
         id="path11"
         style="fill:url(#linearGradient12);stroke:none;stroke-width:0.01;stroke-dasharray:none;stroke-opacity:1"
         d="m 89.743116,119.16407 c 0.674011,0.28496 1.346902,0.53617 2.060069,0.75074 0.713165,0.21455 1.423745,0.36526 2.141345,0.52187 l 0.872174,-3.92322 c -1.239328,-0.2766 -2.456912,-0.64289 -3.643113,-1.09604 z"
         sodipodi:nodetypes="czcccc" />
      <path
         id="path13"
         style="fill:url(#linearGradient14);stroke:none;stroke-width:0.01;stroke-dasharray:none;stroke-opacity:1"
         d="m 75.999364,108.55907 c 0.404901,0.60954 0.827481,1.19034 1.303872,1.76278 0.476401,0.57243 0.985873,1.09019 1.497935,1.61676 l 2.892083,-2.79075 c -0.880989,-0.91448 -1.694348,-1.89179 -2.43361,-2.92422 z"
         sodipodi:nodetypes="czcccc" />
      <path
         id="path15"
         style="fill:url(#linearGradient16);stroke:none;stroke-width:0.01;stroke-dasharray:none;stroke-opacity:1"
         d="m 71.985107,100.758 c 0.212127,0.70035 0.449465,1.37827 0.74074,2.06368 0.291287,0.68542 0.629993,1.328 0.968643,1.97976 l 3.573466,-1.83922 c -0.580178,-1.12952 -1.077492,-2.29972 -1.487972,-3.501352 z"
         sodipodi:nodetypes="czcccc" />
      <path
         id="path17"
         style="fill:url(#linearGradient18);stroke:none;stroke-width:0.01;stroke-dasharray:none;stroke-opacity:1"
         d="m 70.871102,96.503024 c 0.107896,0.723772 0.244,1.429024 0.432376,2.149538 0.188386,0.72053 0.429923,1.405578 0.670068,2.099698 l 3.803176,-1.299328 C 75.367184,98.250982 75.04555,97.02084 74.814401,95.772247 Z"
         sodipodi:nodetypes="czcccc" />
      <path
         id="path19"
         style="fill:url(#linearGradient20);stroke:none;stroke-width:0.01;stroke-dasharray:none;stroke-opacity:1"
         d="m 72.763594,79.246853 c -0.309334,0.663175 -0.58499,1.326436 -0.825432,2.031286 -0.240443,0.704869 -0.416944,1.409483 -0.5997,2.120869 l 3.888775,1.014808 c 0.321633,-1.228396 0.732138,-2.431801 1.228286,-3.600669 z"
         sodipodi:nodetypes="czcccc" />
      <path
         id="path21"
         style="fill:url(#linearGradient22);stroke:none;stroke-width:0.01;stroke-dasharray:none;stroke-opacity:1"
         d="m 74.773321,75.334456 c -0.402595,0.611069 -0.771884,1.227127 -1.11239,1.889457 -0.340509,0.66235 -0.617721,1.333756 -0.902107,2.010952 l 3.699579,1.570198 c 0.49706,-1.168476 1.078405,-2.299288 1.739453,-3.383461 z"
         sodipodi:nodetypes="czcccc" />
      <path
         id="path23"
         style="fill:url(#linearGradient24);stroke:none;stroke-width:0.01;stroke-dasharray:none;stroke-opacity:1"
         d="m 80.382922,68.588842 c -0.561573,0.469174 -1.092688,0.952721 -1.609571,1.488871 -0.516893,0.536168 -0.975781,1.099245 -1.443207,1.665798 l 3.090355,2.569458 c 0.812618,-0.975734 1.695098,-1.891118 2.640464,-2.738879 z"
         sodipodi:nodetypes="czcccc" />
      <path
         id="path25"
         style="fill:url(#linearGradient26);stroke:none;stroke-width:0.01;stroke-dasharray:none;stroke-opacity:1"
         d="m 96.098444,61.214643 c -0.727226,0.08144 -1.436979,0.191665 -2.163888,0.353619 -0.726927,0.161962 -1.420324,0.378373 -2.122761,0.59297 l 1.159631,3.848072 c 1.216098,-0.36539 2.457161,-0.641902 3.71336,-0.827319 z"
         sodipodi:nodetypes="czcccc" />
      <path
         id="path27"
         style="fill:url(#linearGradient28);stroke:none;stroke-width:0.01;stroke-dasharray:none;stroke-opacity:1"
         d="m 109.16528,62.166101 c -0.69303,-0.234931 -1.38246,-0.436385 -2.10938,-0.598282 -0.72695,-0.161888 -1.44664,-0.260263 -2.17374,-0.364106 l -0.58339,3.97644 c 1.25621,0.185332 2.49729,0.461735 3.71342,0.827047 z"
         sodipodi:nodetypes="czcccc" />
      <path
         id="path29"
         style="fill:url(#linearGradient30);stroke:none;stroke-width:0.01;stroke-dasharray:none;stroke-opacity:1"
         d="m 113.27401,63.735792 c -0.65144,-0.333333 -1.30419,-0.633021 -1.99979,-0.899032 -0.69563,-0.266006 -1.39333,-0.468119 -2.09756,-0.676721 l -1.15614,3.849124 c 1.21584,0.366261 2.40345,0.820419 3.55343,1.358906 z"
         sodipodi:nodetypes="czcccc" />
      <path
         id="path31"
         style="fill:url(#linearGradient32);stroke:none;stroke-width:0.01;stroke-dasharray:none;stroke-opacity:1"
         d="m 117.11043,65.886987 c -0.59596,-0.42463 -1.19812,-0.816164 -1.84758,-1.18062 -0.64949,-0.364454 -1.31032,-0.665998 -1.97668,-0.974913 l -1.70425,3.639773 c 1.14956,0.539383 2.25839,1.161617 3.31771,1.861802 z"
         sodipodi:nodetypes="czcccc" />
      <path
         id="path33"
         style="fill:url(#linearGradient34);stroke:none;stroke-width:0.01;stroke-dasharray:none;stroke-opacity:1"
         d="m 128.22059,79.226168 c -0.26274,-0.682971 -0.54891,-1.341762 -0.88947,-2.004065 -0.34058,-0.66232 -0.72534,-1.278429 -1.11063,-1.903736 l -3.42964,2.095233 c 0.66112,1.084126 1.24256,2.214885 1.73971,3.383335 z"
         sodipodi:nodetypes="czcccc" />
      <path
         id="path35"
         style="fill:url(#linearGradient36);stroke:none;stroke-width:0.01;stroke-dasharray:none;stroke-opacity:1"
         d="m 130.60475,92.108729 c 0.052,-0.729911 0.0725,-1.447884 0.0453,-2.192118 -0.0272,-0.744259 -0.11414,-1.46543 -0.19758,-2.19515 l -3.99469,0.441413 c 0.13845,1.262234 0.18496,2.532874 0.13915,3.801864 z"
         sodipodi:nodetypes="czcccc" />
      <path
         id="path37"
         style="fill:url(#linearGradient38);stroke:none;stroke-width:0.01;stroke-dasharray:none;stroke-opacity:1"
         d="m 130.12541,96.480912 c 0.15772,-0.714562 0.28254,-1.421899 0.36399,-2.162162 0.0814,-0.740288 0.10044,-1.466433 0.12414,-2.200525 l -4.01639,-0.144916 c -0.0468,1.268941 -0.1858,2.532812 -0.41589,3.78161 z"
         sodipodi:nodetypes="czcccc" />
      <path
         id="path39"
         style="fill:url(#linearGradient40);stroke:none;stroke-width:0.01;stroke-dasharray:none;stroke-opacity:1"
         d="m 129.01459,100.73672 c 0.26008,-0.68399 0.48656,-1.36561 0.67492,-2.086126 0.18832,-0.720547 0.31288,-1.436182 0.44321,-2.159 l -3.95249,-0.728157 c -0.23106,1.248605 -0.55259,2.478769 -0.96206,3.680759 z"
         sodipodi:nodetypes="czcccc" />
      <path
         id="path41"
         style="fill:url(#linearGradient42);stroke:none;stroke-width:0.01;stroke-dasharray:none;stroke-opacity:1"
         d="m 122.19396,111.92271 c 0.52581,-0.50892 1.0202,-1.02997 1.49657,-1.60241 0.47635,-0.57249 0.89288,-1.16759 1.3177,-1.76674 l -3.26973,-2.33696 c -0.73917,1.03248 -1.55245,2.00985 -2.43339,2.92439 z"
         sodipodi:nodetypes="czcccc" />
      <path
         id="path43"
         style="fill:url(#linearGradient44);stroke:none;stroke-width:0.01;stroke-dasharray:none;stroke-opacity:1"
         d="m 118.91989,114.85915 c 0.5943,-0.42694 1.15929,-0.87045 1.71393,-1.36743 0.55463,-0.49704 1.05337,-1.02515 1.56089,-1.55606 l -2.89462,-2.78813 c -0.88162,0.91386 -1.82854,1.7624 -2.83325,2.53893 z"
         sodipodi:nodetypes="czcccc" />
      <path
         id="path45"
         style="fill:url(#linearGradient46);stroke:none;stroke-width:0.01;stroke-dasharray:none;stroke-opacity:1"
         d="m 115.25207,117.28751 c 0.65013,-0.33586 1.27367,-0.69238 1.89476,-1.10331 0.62109,-0.41099 1.19141,-0.86085 1.77082,-1.31221 l -2.45782,-3.17988 c -1.00528,0.77576 -2.06566,1.47739 -3.17273,2.09936 z"
         sodipodi:nodetypes="czcccc" />
      <path
         id="path47"
         style="fill:url(#linearGradient48);stroke:none;stroke-width:0.01;stroke-dasharray:none;stroke-opacity:1"
         d="m 107.05892,120.42493 c 0.71933,-0.13433 1.41915,-0.29609 2.13229,-0.51066 0.71316,-0.21463 1.3889,-0.48111 2.07378,-0.74641 l -1.4375,-3.75315 c -1.18615,0.45326 -2.40371,0.81965 -3.64303,1.0963 z"
         sodipodi:nodetypes="czcccc" />
    </g>
  </g>
</svg>
